Jump_normalized_Motion_pl09
version=1
nRows=25
nColumns=43
inDegrees=yes
endheader
time		pelvis_tilt		pelvis_list		pelvis_rotation		pelvis_tx		pelvis_ty		pelvis_tz		hip_flexion_r		hip_adduction_r		hip_rotation_r		knee_angle_r		ankle_angle_r		subtalar_angle_r		mtp_angle_r		hip_flexion_l		hip_adduction_l		hip_rotation_l		knee_angle_l		ankle_angle_l		subtalar_angle_l		mtp_angle_l		lumbar_extension		lumbar_bending		lumbar_rotation		neck_flexion		neck_lateral_bending		neck_rotation		arm_flex_r		arm_add_r		arm_rot_r		elbow_flex_r		pro_sup_r		wrist_flex_r		wrist_dev_r		hand_finger_flex_r		arm_flex_l		arm_add_l		arm_rot_l		elbow_flex_l		pro_sup_l		wrist_flex_l		wrist_dev_l		hand_finger_flex_l		
2.158333		2.107673		-23.222909		93.032248		-0.024307		1.652304		1.536077		80.969762		-8.101220		12.962468		-134.727824		13.187102		12.167648		19.874539		73.468439		-7.026888		5.594830		-135.102190		30.698605		10.685983		14.661083		-35.941221		-1.300958		-1.813887		30.184179		8.706565		-2.278782		107.804317		-9.192538		24.680977		63.615939		81.193260		-1.550004		-6.462249		-39.117807		116.308833		-5.249457		29.139043		53.341431		95.096358		-9.343887		-2.188749		-12.533919		
2.161793		2.271412		-23.225723		93.200262		-0.024400		1.653763		1.530900		80.555513		-8.046005		12.808031		-134.503773		11.968444		12.229311		19.865362		72.662487		-7.142079		5.638872		-134.760834		30.661760		10.556445		14.757386		-35.589391		-1.136687		-1.931373		29.672056		8.850760		-2.101639		108.045765		-8.917088		24.729924		63.398113		81.241003		-1.716771		-6.421505		-39.531511		116.613179		-5.253348		29.298710		53.092562		95.369379		-9.712557		-2.380315		-12.851268		
2.165253		2.542342		-23.115454		93.417443		-0.024446		1.655431		1.525540		79.971124		-7.964509		12.476872		-134.250097		10.768579		12.087501		19.868450		71.754332		-7.304555		5.801874		-134.415716		30.617639		10.414209		14.876468		-35.343926		-0.870258		-1.985124		29.131084		8.971099		-1.967809		108.280926		-8.671262		24.808767		63.142256		81.284432		-1.831317		-6.441893		-40.021293		116.867574		-5.242557		29.386358		52.799201		95.871646		-10.025690		-2.668636		-13.143969		
2.168712		2.999593		-22.855153		93.734083		-0.024453		1.657404		1.520027		79.148693		-7.842980		11.831563		-133.923380		9.574570		11.518564		19.959070		70.736437		-7.543479		6.177806		-134.067557		30.530680		10.261822		15.108538		-35.275577		-0.412776		-1.916937		28.735961		8.984941		-1.773316		108.566730		-8.527101		24.898064		62.868122		81.022937		-1.578182		-6.569032		-40.663316		117.088041		-5.170216		29.265599		52.449967		96.813572		-10.182959		-3.147874		-13.358462		
2.172172		3.392870		-22.686327		94.007098		-0.024425		1.659119		1.514404		78.463323		-7.725826		11.284966		-133.626557		8.417502		11.168873		20.053702		69.804940		-7.786200		6.455809		-133.725434		30.437161		10.142862		15.319872		-35.059436		-0.035837		-1.863058		28.172150		9.069062		-1.763322		108.741367		-8.478961		24.928328		62.654416		80.629663		-1.172306		-6.686060		-41.106621		117.148275		-5.101989		29.049197		52.236887		97.546114		-10.199241		-3.475139		-13.436090		
2.175631		3.734120		-22.510633		94.216007		-0.024372		1.660793		1.508719		77.861094		-7.571145		10.831735		-133.343129		6.843485		10.891398		20.084756		68.857789		-8.050662		6.638226		-133.361907		30.317960		9.858488		15.467941		-34.830960		0.274464		-1.802507		27.524169		9.152268		-1.638479		108.845289		-8.402127		24.697893		62.295120		79.783189		-0.338254		-7.003264		-40.961452		117.170906		-4.952011		28.731513		51.918199		98.080703		-10.231037		-3.797342		-13.404101		
2.179091		4.146545		-22.218776		94.455628		-0.024312		1.662677		1.502946		77.110123		-7.390822		10.184844		-133.004634		5.321385		10.102741		20.279459		67.816748		-8.365045		6.884279		-132.992386		30.134330		9.537469		15.772883		-34.746690		0.666229		-1.713313		27.040671		9.212686		-1.497325		109.039988		-8.327982		24.402320		61.638427		78.186353		1.252286		-7.845283		-40.500948		117.198286		-4.759414		28.239934		51.471293		99.047416		-10.227438		-4.425023		-13.245012		
2.182551		4.428735		-22.013526		94.627147		-0.024281		1.664281		1.497010		76.521993		-7.237763		9.755459		-132.685871		3.665973		9.612781		20.427656		66.815704		-8.634943		6.964857		-132.614129		29.935247		9.226864		16.009449		-34.516998		0.930068		-1.680809		26.356873		9.309189		-1.428435		109.054367		-8.268063		24.074727		61.088254		76.967383		2.586651		-8.631040		-39.902537		117.096390		-4.621573		27.842448		51.142771		99.655866		-10.303370		-4.911524		-13.121050		
2.186010		4.680081		-21.797940		94.777997		-0.024247		1.665897		1.490963		75.949945		-7.091214		9.318922		-132.338384		1.907916		8.979806		20.541310		65.799798		-8.893303		7.004808		-132.208260		29.699054		8.884155		16.207455		-34.296293		1.165571		-1.668048		25.662454		9.401102		-1.331058		109.010489		-8.173211		23.738699		60.505266		76.032087		3.908658		-9.452041		-39.134454		116.968760		-4.507405		27.486228		50.790838		100.163096		-10.421160		-5.439803		-13.057699		
2.189470		4.935350		-21.564086		94.931968		-0.024227		1.667483		1.484861		75.391820		-6.932642		8.873726		-131.949192		0.008435		8.256968		20.619641		64.800038		-9.141199		7.046003		-131.811128		29.443284		8.524894		16.368257		-34.076205		1.407471		-1.661262		24.951106		9.498092		-1.221242		108.908058		-8.050982		23.478570		59.941377		75.550479		4.958727		-10.160406		-38.419869		116.801453		-4.388981		27.143126		50.419663		100.594968		-10.555565		-5.916678		-13.078406		
2.192929		5.199234		-21.335083		95.092993		-0.024226		1.668996		1.478583		74.833946		-6.794940		8.383337		-131.509025		-2.031201		7.471191		20.672851		63.767059		-9.399958		7.098464		-131.401178		29.148583		8.166093		16.489157		-33.836884		1.660648		-1.653465		24.190309		9.609121		-1.115903		108.743597		-7.956244		23.349813		59.503257		75.604199		5.630038		-10.720478		-37.834583		116.575505		-4.303229		26.817137		50.085802		100.961239		-10.674703		-6.310485		-13.182130		
2.196389		5.503358		-21.041821		95.260984		-0.024217		1.670617		1.472199		74.216549		-6.644380		7.777802		-130.983161		-4.250444		6.309876		20.807096		62.703921		-9.689155		7.193389		-130.990669		28.798696		7.763480		16.617063		-33.659435		1.949764		-1.620698		23.445064		9.725111		-1.002987		108.537123		-7.888213		23.335685		59.122496		76.299817		6.022410		-11.277896		-37.160812		116.291331		-4.243861		26.485951		49.801361		101.397459		-10.713181		-6.709288		-13.380489		
2.199848		5.722825		-20.818959		95.401149		-0.024280		1.672061		1.465754		73.701794		-6.559471		7.339046		-130.434447		-6.349115		5.843744		20.873917		61.696927		-9.895464		7.243204		-130.574085		28.424457		7.514515		16.673407		-33.377430		2.157012		-1.630037		22.506709		9.916952		-0.987449		108.237122		-7.909920		23.436245		58.950176		76.865990		6.154426		-11.535587		-36.725897		115.889553		-4.213739		26.209770		49.662547		101.600538		-10.780915		-6.882120		-13.544846		
2.203308		5.983590		-20.466513		95.491823		-0.024294		1.673683		1.459262		73.102264		-6.405740		6.708970		-129.790139		-8.908955		4.408191		21.101722		60.577899		-10.193771		7.255534		-130.171655		27.951071		6.982951		16.742047		-33.262562		2.392383		-1.567528		21.799415		10.024611		-0.833658		107.998806		-7.883030		23.512061		58.631135		77.986528		6.155700		-12.084131		-35.649175		115.529589		-4.149211		25.834460		49.414556		101.950183		-10.786303		-7.169870		-13.782419		
2.206768		6.235771		-20.170645		95.626935		-0.024416		1.675089		1.452720		72.581983		-6.330949		6.162037		-129.117318		-11.312837		3.659953		22.665729		59.536316		-10.409113		7.369531		-129.780446		27.504195		6.808490		16.982326		-33.041370		2.657122		-1.570449		20.901472		10.115410		-0.646084		107.615152		-7.785902		23.464064		58.383086		79.378039		5.200284		-12.613384		-32.130090		115.030004		-4.101817		25.332200		49.282632		102.438825		-10.681356		-7.262191		-14.039253		
2.210227		6.317938		-19.870799		95.538538		-0.024481		1.676511		1.446165		72.157557		-6.195205		5.786277		-128.431018		-13.692081		2.598839		23.608603		58.416529		-10.631287		7.158674		-129.364335		26.830662		6.104421		17.048473		-32.864603		2.704326		-1.495617		20.095300		10.182484		-0.561164		107.346309		-7.843802		23.712828		58.136824		79.604665		4.767027		-13.041298		-29.814456		114.551685		-4.101432		25.012945		49.162456		102.527589		-10.752133		-7.501292		-14.154605		
2.213687		6.434124		-19.586149		95.523820		-0.024640		1.677710		1.439570		71.786944		-6.137882		5.421931		-127.775690		-15.576349		2.336252		23.956535		57.364766		-10.807423		7.096423		-128.982048		26.181794		5.804102		17.001739		-32.625500		2.825664		-1.447627		19.117127		10.217492		-0.436675		107.015187		-7.862220		23.862734		57.840169		79.870176		4.763752		-13.362212		-28.766268		114.012438		-4.065304		24.686786		49.001764		102.466139		-10.998476		-7.624307		-14.161141		
2.217146		6.501563		-19.375239		95.496933		-0.024765		1.678813		1.432854		71.463155		-6.117969		5.061409		-127.128578		-16.698324		2.098228		24.262134		56.383127		-10.915944		7.029767		-128.587591		25.525693		5.619753		16.944426		-32.317674		2.894832		-1.424250		18.230104		10.237155		-0.413161		106.614649		-8.021780		24.129607		57.741826		80.217844		4.824692		-13.607539		-27.985405		113.392543		-4.219997		24.578270		49.096109		102.461245		-11.131347		-7.822767		-14.128020		
2.220606		6.651192		-19.016613		95.484260		-0.024931		1.680196		1.426244		70.998088		-6.038547		4.568453		-126.363397		-17.961983		1.161205		27.689244		55.310272		-11.077290		7.064391		-128.174876		24.779694		5.325263		16.832813		-32.180657		3.099321		-1.399103		17.258017		10.052964		-0.230262		106.257415		-7.789905		24.123309		57.170989		82.466195		3.486100		-14.375254		-24.272003		112.779920		-4.386163		24.378852		49.076369		102.437835		-11.588185		-8.035213		-13.718188		
2.224066		6.701930		-18.840713		95.357712		-0.024936		1.681032		1.419426		70.815413		-5.984168		4.250860		-125.789721		-18.243406		1.202259		27.905703		54.394063		-11.231835		7.006939		-127.797004		23.984336		5.177499		16.735559		-31.812584		3.123278		-1.296486		16.302613		10.075343		-0.172115		105.851841		-7.991174		24.610305		57.082242		82.739995		3.389555		-14.196718		-24.288513		112.044285		-4.553351		24.264753		49.187026		102.364324		-11.810234		-8.129832		-13.806731		
2.227525		6.774326		-18.611578		95.194289		-0.024940		1.681986		1.412617		70.561133		-5.894585		3.875872		-125.171391		-18.130528		1.070449		28.231567		53.450281		-11.404277		6.949184		-127.425029		23.066386		4.954150		16.605526		-31.512999		3.169632		-1.139778		15.297989		10.008434		-0.069089		105.452845		-8.170696		25.159263		56.916045		83.441374		3.131392		-14.075475		-24.513045		111.272794		-4.721552		24.131152		49.307669		102.269663		-12.091584		-8.205652		-13.947689		
2.230985		6.896193		-18.268326		95.071236		-0.025000		1.683209		1.405868		70.149726		-5.801288		3.396193		-124.483148		-17.727719		0.661392		30.464069		52.447756		-11.565934		6.969651		-127.033311		22.113772		4.646826		16.217363		-31.398744		3.331066		-1.005891		14.524508		9.684076		0.047633		105.112856		-8.110252		25.412839		56.520977		86.763932		2.959680		-14.469453		-26.132750		110.567820		-5.043800		24.118943		49.512844		101.957850		-12.348861		-8.106824		-14.315513		
2.234444		6.993371		-18.078818		94.780075		-0.024785		1.684041		1.399035		69.921113		-5.583259		2.971515		-123.879813		-16.574928		0.419762		30.803577		51.583399		-11.827266		6.896959		-126.674666		21.084878		4.368079		16.047979		-31.080286		3.337746		-0.726427		13.598230		9.594802		0.228537		104.653254		-8.302941		25.917128		56.416712		87.606409		2.876583		-14.283740		-26.746098		109.729117		-5.248849		23.970689		49.714605		101.920772		-12.621896		-8.008921		-14.568247		
2.237904		7.052080		-17.832467		94.516530		-0.024704		1.685018		1.392201		69.631203		-5.453547		2.532910		-123.256022		-15.327599		0.129067		31.112080		50.695356		-12.003913		6.837722		-126.290823		19.879556		4.182221		15.844657		-30.864493		3.354618		-0.474496		12.735897		9.440872		0.326039		104.217001		-8.519507		26.410202		56.325182		89.006530		2.829099		-14.242442		-27.698713		108.887367		-5.510489		23.839746		50.033858		101.947909		-12.778329		-7.771608		-14.909542		
2.241364		7.095229		-17.576386		94.246434		-0.024616		1.686055		1.385328		69.325979		-5.303983		2.099788		-122.588871		-14.163678		-0.265276		31.044686		49.804534		-12.127258		6.795966		-125.898962		18.719857		3.989874		15.653363		-30.696707		3.359063		-0.250470		11.998238		9.263514		0.390728		103.728488		-8.736715		26.769108		56.299165		90.723651		3.050535		-14.332409		-28.849634		108.017969		-5.880455		23.695378		50.524122		102.171387		-12.686121		-7.478207		-15.388207		
